<?xml version="1.0" standalone="no"?>
<!DOCTYPE svg PUBLIC "-//W3C//DTD SVG 20010904//EN"
 "http://www.w3.org/TR/2001/REC-SVG-20010904/DTD/svg10.dtd">
<svg version="1.0" xmlns="http://www.w3.org/2000/svg"
 width="1025.000000pt" height="1025.000000pt" viewBox="0 0 1025.000000 1025.000000"
 preserveAspectRatio="xMidYMid meet">
<metadata>
Created by potrace 1.14, written by Peter Selinger 2001-2017
</metadata>
<g transform="translate(0.000000,1025.000000) scale(0.100000,-0.100000)"
fill="#000000" stroke="none">
<path d="M1665 10242 c-69 -3 -248 -30 -320 -48 -516 -129 -949 -485 -1176
-969 -80 -169 -140 -394 -156 -575 -9 -108 -9 -6938 0 -7045 45 -522 329
-1008 758 -1296 98 -66 95 -65 224 -128 175 -87 366 -145 555 -168 84 -10
7087 -10 7160 0 108 15 286 59 380 94 131 48 307 141 420 221 122 86 326 291
412 412 59 84 160 268 202 370 40 97 89 277 101 376 4 27 10 75 14 107 10 73
7 7033 -3 7107 -13 100 -56 276 -90 373 -232 647 -811 1097 -1498 1163 -63 6
-6871 12 -6983 6z"/>
</g>
</svg>
