<svg
    xmlns="http://www.w3.org/2000/svg"
    fill="currentColor"
    stroke="currentColor"
    viewBox="0 0 430.14 548.4"
>
    <path
        stroke-width="8"
        stroke-linecap="round"
        d="M278.87 146.51c19.19-16.1 34.42-27.9 48.49-40.94 16.66-15.45 29.53-33.81 31.34-57.29 1.3-16.88-2.73-32.35-19.12-41.62-16.76-9.48-33.53-9.17-48.21 3.1-85.54 71.47-172.12 141.8-255.5 215.72-44.83 39.74-47.13 110.66-9.72 158.07 32.65 41.37 66.76 81.66 101.68 121.14 27.73 31.33 64.11 46.95 105.91 43.17 55.45-5.01 110.73-12.34 165.91-19.89 26.93-3.68 35.27-18.98 27.97-45.88-10.26-37.83-57.73-63.78-97.61-53.76-6.77 1.7-11.15 4.28-11.07 11.72.08 7.6 5.15 10.74 11.61 11.51 10.05 1.2 20.18 1.71 30.28 2.46 17.58 1.3 30.52 9.94 39.26 25.01 8.14 14.04 9.32 24.03-11.71 26.3-51.35 5.56-102.47 13.23-153.87 18.22-35.36 3.43-66.2-9.27-89.59-36.14-33.28-38.23-66.1-76.92-97.78-116.48-33.44-41.75-29.03-99.17 11.52-133.97 79.2-67.98 159.7-134.45 239.58-201.64 8.91-7.49 18.44-15.33 29.53-6.63 11.86 9.3 7.3 22.19 2.16 33.35-6 13.02-15.54 23.5-26.64 32.7-28.86 23.93-57.74 47.87-86.02 72.47-8.2 7.13-25.46 14.03-13.6 27.91 10.13 11.86 19.36-2.56 27.83-8.52 5.79-4.07 10.72-9.41 16.67-13.18 11.82-7.49 23.76-6.64 32.59 4.37 8.79 10.96 7.35 22.96-2.61 32.8-8.63 8.53-18.55 15.74-27.23 24.23-4.58 4.48-5.96 10.92-1.17 16.31 4.7 5.29 11.08 5.05 16.36 1.16 9.77-7.21 18.63-15.7 28.59-22.61 11.48-7.97 23.58-7.14 32.67 3.63 9.08 10.76 7.94 22.81-1.91 32.8-7.8 7.91-16.79 14.64-25.13 22.02-5.79 5.13-9.34 11.58-3.98 18.47 5.43 6.98 12.41 4.92 18.75.35 1.64-1.18 3.27-2.41 4.78-3.76 14.55-12.93 31.17-24.93 46.32-4.03 13.72 18.93-2.62 31.15-16.23 42.45-29.62 24.61-59.12 49.36-88.47 74.29-7.36 6.25-19.62 12.8-11.45 24.13 8.62 11.96 17.91 1.94 25.44-4.33 33.49-27.88 67.32-55.38 100.01-84.18 29.03-25.58 26.03-60.27-5.62-81.18-1.68-1.11-5.12-1.67-5.22-2.73-3.73-37.25-47.09-59.19-54.09-74.19-10.61-22.73-12.95-37.86-31.67-46.91Z"
    />
</svg>
